<?xml version="1.0" standalone="no"?>
<!DOCTYPE svg PUBLIC "-//W3C//DTD SVG 20010904//EN"
 "http://www.w3.org/TR/2001/REC-SVG-20010904/DTD/svg10.dtd">
<svg version="1.0" xmlns="http://www.w3.org/2000/svg"
 width="260.000000pt" height="260.000000pt" viewBox="0 0 260.000000 260.000000"
 preserveAspectRatio="xMidYMid meet">
<metadata>
Created by potrace 1.14, written by Peter Selinger 2001-2017
</metadata>
<g transform="translate(0.000000,260.000000) scale(0.100000,-0.100000)"
fill="#000000" stroke="none">
<path d="M0 1300 l0 -1300 1300 0 1300 0 0 1300 0 1300 -1300 0 -1300 0 0
-1300z m1943 1103 c23 -17 53 -34 67 -38 14 -4 34 -13 45 -20 11 -6 37 -17 57
-24 21 -7 69 -42 110 -80 57 -54 83 -87 117 -154 42 -84 44 -90 49 -199 5
-132 -2 -155 -74 -249 -58 -76 -123 -109 -212 -109 -81 0 -87 -9 -72 -102 6
-40 18 -102 27 -138 8 -36 23 -112 33 -170 10 -58 30 -159 44 -225 14 -66 26
-149 26 -185 0 -64 -2 -68 -48 -125 -40 -51 -53 -60 -83 -63 -33 -3 -40 2 -76
45 -80 97 -79 87 -93 488 -8 227 -11 261 -33 326 -14 41 -28 92 -31 114 -9 52
-23 95 -55 172 -28 68 -41 66 -41 -6 0 -41 -15 -116 -62 -306 -30 -122 -58
-323 -58 -420 0 -56 -9 -92 -69 -265 -8 -25 -33 -64 -55 -87 -38 -43 -39 -43
-108 -43 -79 0 -114 14 -170 68 -33 31 -38 42 -38 80 0 23 6 55 14 70 7 15 19
52 27 82 7 30 16 59 21 65 4 5 8 17 8 27 0 10 10 44 21 76 12 31 25 81 29 110
5 30 16 62 24 71 9 10 16 34 16 53 0 20 6 51 14 69 26 62 56 251 56 354 0 86
5 112 31 185 17 47 33 99 36 117 3 18 11 38 19 44 8 6 14 17 14 24 0 18 28 71
45 85 8 7 15 18 15 24 0 7 14 41 31 77 25 52 30 72 26 109 -6 51 6 80 31 80
10 0 22 4 28 9 14 14 69 19 167 16 80 -2 92 -5 130 -32z m-1066 -26 c228 -2
254 -4 270 -20 17 -16 18 -42 16 -315 -1 -173 -6 -322 -13 -357 -21 -111 -59
-251 -85 -310 -62 -143 -95 -225 -95 -239 0 -23 -92 -199 -124 -236 -14 -18
-26 -40 -26 -50 0 -59 -115 -207 -193 -249 -44 -24 -48 -25 -159 -15 -98 9
-123 15 -189 46 -85 41 -138 96 -163 169 -22 63 -22 296 0 327 19 28 65 29
120 3 120 -57 162 -54 221 17 73 87 81 120 84 349 2 121 -2 171 -14 208 -10
34 -17 113 -22 250 -6 191 -16 312 -31 382 -5 28 -3 34 17 42 13 5 49 7 79 4
30 -2 168 -5 307 -6z"/>
<path d="M1800 2359 c0 -5 7 -9 15 -9 22 0 75 -41 75 -58 0 -8 33 -47 74 -86
98 -96 111 -135 95 -286 -6 -58 -16 -113 -21 -123 -5 -10 -28 -27 -51 -37
l-40 -18 -30 36 c-36 45 -61 100 -81 176 -9 32 -21 65 -27 72 -6 8 -11 34 -11
59 2 86 -46 63 -59 -28 -4 -30 -10 -64 -14 -76 -5 -16 -2 -21 12 -21 31 0 93
-71 100 -116 3 -21 19 -65 34 -96 26 -51 34 -58 71 -69 24 -6 49 -13 56 -15 8
-2 12 -15 10 -31 -3 -25 -7 -28 -47 -31 -23 -2 -57 2 -74 7 -16 6 -32 9 -34 7
-2 -2 1 -23 7 -47 6 -24 15 -120 20 -214 12 -244 45 -582 57 -597 6 -7 14 -27
17 -45 4 -17 22 -47 40 -66 l32 -34 32 38 32 38 -34 -6 c-53 -8 -67 22 -77
165 -4 68 -14 133 -23 154 -13 29 -16 74 -16 207 0 93 4 172 9 175 5 3 6 26 4
51 -5 41 -3 45 21 55 14 5 26 16 26 24 0 20 58 86 76 86 8 0 19 11 24 25 5 14
16 25 23 25 13 0 107 126 107 144 0 5 8 18 17 29 13 14 18 37 18 88 0 45 4 72
13 78 14 8 4 44 -37 134 -23 50 -140 171 -181 186 -47 17 -138 34 -153 28 -8
-3 -19 -1 -25 5 -14 14 -82 28 -82 17z m410 -264 c18 -47 24 -210 10 -262 -18
-62 -60 -106 -97 -101 -25 3 -28 7 -26 37 1 20 9 41 20 50 34 28 45 91 32 186
-13 99 -9 115 26 115 18 0 28 -7 35 -25z"/>
<path d="M1666 2308 c-2 -7 -15 -51 -30 -97 -17 -57 -23 -88 -16 -95 23 -23 8
-87 -30 -131 -10 -11 -21 -42 -24 -68 -4 -26 -14 -63 -22 -82 -12 -29 -20 -35
-44 -35 -16 0 -31 -4 -35 -9 -3 -5 -14 -49 -24 -98 -10 -48 -26 -115 -35 -148
-8 -33 -16 -87 -16 -120 -1 -94 -25 -257 -42 -290 -8 -16 -18 -42 -22 -57 -3
-15 -23 -44 -44 -65 -58 -58 -72 -104 -72 -237 0 -132 2 -135 93 -156 l58 -13
30 29 c48 48 114 253 121 375 6 95 21 193 58 381 17 86 25 104 65 156 l46 59
-3 89 c-3 75 -6 89 -20 92 -15 3 -18 -4 -18 -35 -1 -68 -17 -114 -55 -153 -35
-36 -37 -42 -42 -119 -6 -88 -16 -104 -60 -99 -21 2 -29 9 -31 27 -2 13 1 28
7 34 6 6 11 31 11 57 0 84 11 120 47 155 38 37 53 78 53 147 0 26 5 50 10 53
6 3 10 14 10 24 0 10 11 34 24 54 28 41 56 131 56 180 0 19 7 40 15 47 8 7 15
21 15 32 0 33 19 58 44 58 30 0 42 27 16 35 -10 3 -21 12 -24 20 -7 18 -65 20
-70 3z m-218 -1255 c2 -40 -3 -63 -23 -102 -14 -28 -25 -59 -25 -70 0 -10 -14
-49 -31 -85 -30 -64 -33 -67 -63 -64 -23 2 -32 9 -34 24 -2 17 31 107 56 148
3 5 -3 6 -13 2 -17 -6 -17 -5 -2 16 27 39 67 129 67 153 0 29 9 37 40 33 23
-3 25 -8 28 -55z"/>
<path d="M1831 2183 c-30 -108 1 -224 76 -286 12 -10 32 -36 45 -58 22 -39 22
-39 34 -17 21 41 25 84 15 146 -13 82 -31 115 -101 190 l-59 63 -10 -38z"/>
<path d="M1683 1888 c-15 -20 -23 -48 -14 -48 5 0 11 7 15 15 3 8 12 15 20 15
10 0 13 6 10 15 -7 18 -18 19 -31 3z"/>
<path d="M2050 845 c0 -31 11 -65 21 -65 5 0 6 15 2 33 -7 38 -23 60 -23 32z"/>
<path d="M822 2339 c-6 -15 -11 -18 -16 -11 -10 17 -53 15 -63 -3 -6 -10 -32
-15 -93 -17 l-85 -3 3 -80 c8 -233 23 -476 31 -525 5 -30 10 -129 10 -220 1
-113 4 -161 11 -154 6 6 14 46 18 90 l7 79 30 0 30 0 5 130 c5 126 6 130 28
133 13 2 29 -2 37 -8 11 -9 14 -3 17 37 3 46 4 48 33 48 l30 0 5 -240 c3 -141
8 -232 13 -220 5 11 7 144 6 295 l-3 275 24 3 c40 6 50 -21 50 -137 0 -57 3
-102 6 -98 15 15 28 94 33 212 l6 130 30 0 30 0 3 -137 c2 -116 -1 -148 -20
-215 -21 -73 -38 -236 -23 -221 10 9 43 140 61 238 20 115 25 553 6 572 -9 9
-42 13 -100 13 -83 0 -86 1 -92 25 -8 35 -57 41 -68 9z"/>
<path d="M978 1452 c-27 -3 -28 -6 -28 -58 0 -31 -5 -64 -11 -76 -6 -11 -8
-22 -5 -25 2 -3 11 10 19 28 8 19 24 56 37 82 12 26 21 49 19 50 -2 1 -16 1
-31 -1z"/>
<path d="M772 1283 c-6 -12 -18 -50 -26 -85 -15 -63 -15 -63 4 -40 23 28 43
94 38 125 l-3 22 -13 -22z"/>
<path d="M840 1085 c-19 -20 -46 -39 -59 -42 -14 -3 -44 -19 -68 -35 -70 -47
-155 -76 -235 -80 l-73 -3 -3 48 c-2 31 -8 47 -16 47 -8 0 -16 7 -20 15 -6 16
-51 21 -60 7 -3 -5 -25 -5 -48 -1 -24 4 -52 9 -62 11 -56 9 -41 -185 25 -313
56 -112 159 -133 349 -73 25 8 53 14 64 14 10 0 52 32 93 72 64 63 74 76 71
103 -2 23 -9 31 -26 33 -18 3 -21 7 -13 16 6 7 23 35 37 62 14 27 39 73 56
102 16 28 28 52 26 52 -2 0 -20 -16 -38 -35z"/>
</g>
</svg>
