<?xml version="1.0" standalone="no"?>
<!DOCTYPE svg PUBLIC "-//W3C//DTD SVG 20010904//EN"
 "http://www.w3.org/TR/2001/REC-SVG-20010904/DTD/svg10.dtd">
<svg version="1.0" xmlns="http://www.w3.org/2000/svg"
 width="500.000000pt" height="500.000000pt" viewBox="0 0 500.000000 500.000000"
 preserveAspectRatio="xMidYMid meet">
<metadata>
Created by potrace 1.14, written by Peter Selinger 2001-2017
</metadata>
<g transform="translate(0.000000,500.000000) scale(0.100000,-0.100000)"
fill="#000000" stroke="none">
<path d="M0 2500 l0 -2500 2500 0 2500 0 0 2500 0 2500 -2500 0 -2500 0 0
-2500z m1328 1974 c32 -9 27 -30 -9 -38 -40 -8 -1027 -8 -1056 0 -27 7 -30 31
-5 37 26 7 1044 8 1070 1z m876 -136 c-21 -24 -111 -119 -201 -213 l-163 -169
0 212 0 212 201 0 201 0 -38 -42z m1286 -233 l0 -275 -300 0 -300 0 0 275 0
275 300 0 300 0 0 -275z m690 20 l0 -225 -225 0 -225 0 0 225 0 225 225 0 225
0 0 -225z m-2922 129 c12 -4 22 -12 22 -19 0 -7 -10 -15 -22 -19 -30 -8 -966
-8 -995 0 -27 7 -30 31 -5 37 26 7 974 8 1000 1z m1049 -501 c-2 -2 -89 -2
-194 -1 l-189 3 190 223 191 223 3 -222 c1 -122 1 -224 -1 -226z m2293 192 l0
-225 -125 0 -125 0 0 225 0 225 125 0 125 0 0 -225z m260 -320 l0 -245 -25 0
-25 0 0 245 0 245 25 0 25 0 0 -245z m-1790 -120 l0 -105 -85 0 -85 0 0 105 0
105 85 0 85 0 0 -105z m-857 62 c-76 -126 -159 -257 -163 -257 -3 0 -42 61
-87 135 l-83 135 171 0 c138 0 169 -2 162 -13z m1247 -332 l0 -345 -95 0 -95
0 0 345 0 345 95 0 95 0 0 -345z m1200 -75 l0 -230 -185 0 -185 0 0 230 0 230
185 0 185 0 0 -230z m-2311 -157 c1 -22 -3 -23 -64 -23 -45 0 -65 4 -65 13 0
6 14 96 32 200 l33 187 32 -177 c18 -98 32 -188 32 -200z m-366 102 l115 -230
-119 -235 -118 -235 0 469 c-1 258 1 467 3 465 2 -2 55 -108 119 -234z m1057
-75 l0 -160 -40 0 -40 0 0 160 0 160 40 0 40 0 0 -160z m1110 -235 l0 -215
-145 0 -145 0 0 215 0 215 145 0 145 0 0 -215z m-500 -120 c0 -208 -1 -215
-20 -215 -19 0 -20 7 -20 215 0 208 1 215 20 215 19 0 20 -7 20 -215z m-1340
-378 c49 -230 90 -423 90 -428 0 -5 -77 -9 -185 -9 -102 0 -185 3 -185 8 0 17
185 863 187 855 2 -4 43 -196 93 -426z m1150 43 l0 -340 -255 0 -255 0 0 340
0 340 255 0 255 0 0 -340z m920 -130 l0 -210 -250 0 -250 0 0 210 0 210 250 0
250 0 0 -210z m-2472 -202 l-3 -83 -61 80 -61 80 61 79 61 79 3 -76 c2 -42 2
-113 0 -159z m-1221 38 c-17 -43 -173 -366 -177 -366 -4 1 -168 340 -178 370
-2 6 67 10 178 10 154 0 181 -2 177 -14z m283 -360 c0 -3 -45 -6 -100 -6
l-100 0 0 115 0 114 100 -109 c55 -59 100 -111 100 -114z m2050 -131 l0 -275
-35 0 -35 0 0 275 0 275 35 0 35 0 0 -275z m-950 130 l65 -24 -440 0 -440 0
220 78 220 78 155 -54 c85 -30 184 -66 220 -78z m1410 5 l0 -90 -155 0 -155 0
0 90 0 90 155 0 155 0 0 -90z m850 -130 l0 -220 -60 0 -60 0 0 220 0 220 60 0
60 0 0 -220z m230 -130 l0 -240 -25 0 -25 0 0 240 0 240 25 0 25 0 0 -240z
m-2511 96 c-2 -2 -163 -63 -356 -134 l-353 -131 -352 131 c-194 71 -355 132
-357 134 -2 2 317 4 709 4 392 0 711 -2 709 -4z m1431 -161 l0 -75 -140 0
-140 0 0 75 0 75 140 0 140 0 0 -75z m1153 -500 l47 -7 0 -48 0 -48 -97 -9
c-128 -11 -4088 -11 -4215 0 l-98 9 0 49 c0 46 1 49 28 50 15 1 81 5 147 9
152 9 4123 4 4188 -5z m-108 -354 c133 -6 140 -7 143 -27 2 -13 -4 -25 -15
-30 -23 -11 -3878 -17 -4148 -7 l-200 8 0 25 c0 25 0 25 120 30 169 8 3930 9
4100 1z"/>
</g>
</svg>
